<svg version="1.1" viewBox="0.0 0.0 261.2257217847769 119.18372703412074" fill="none" stroke="none" stroke-linecap="square" stroke-miterlimit="10" xmlns:xlink="http://www.w3.org/1999/xlink" xmlns="http://www.w3.org/2000/svg"><clipPath id="p.0"><path d="m0 0l261.2257 0l0 119.18372l-261.2257 0l0 -119.18372z" clip-rule="nonzero"/></clipPath><g clip-path="url(#p.0)"><path fill="#000000" fill-opacity="0.0" d="m0 0l261.2257 0l0 119.18372l-261.2257 0z" fill-rule="evenodd"/><path fill="#d8d8d8" d="m47.682415 58.16273l161.79527 0.8740158" fill-rule="evenodd"/><path fill="#000000" fill-opacity="0.0" d="m47.682415 58.16273l161.79527 0.8740158" fill-rule="evenodd"/><path stroke="#9e9e9e" stroke-width="10.94488188976378" stroke-miterlimit="33.357155" stroke-linecap="butt" d="m47.682415 58.16273l161.79527 0.8740158" fill-rule="evenodd"/><path fill="#000000" fill-opacity="0.0" d="m197.39633 45.992126l18.036743 12.170605l-17.685043 13.0446205" fill-rule="evenodd"/><path stroke="#9e9e9e" stroke-width="10.94488188976378" stroke-miterlimit="33.357155" stroke-linecap="butt" d="m197.39633 45.992126l18.036743 12.170605l-17.685043 13.0446205" fill-rule="evenodd"/><path fill="#9e9e9e" d="m49.52231 46.16798c-6.3044624 0 -11.383202 5.338581 -11.383202 11.818897c0 6.566925 5.078739 11.818893 11.383202 11.818893c6.3044624 0 11.469818 -5.2519684 11.469818 -11.818893c0 -6.480316 -5.1653557 -11.818897 -11.469818 -11.818897z" fill-rule="evenodd"/><path fill="#000000" fill-opacity="0.0" d="m10.737533 7.905512l-0.43832016 58.2231c0 23.288712 16.283466 42.72441 35.545933 42.813652c18.997375 0.08660889 38.784775 -14.622047 38.784775 -40.448822l1.4881897 -60.498688l24.076118 -0.17585278c24.341202 0 54.19423 16.110237 54.19423 48.328083c0 35.020996 -27.577438 53.406822 -57.34384 53.406822" fill-rule="evenodd"/><path stroke="#000000" stroke-width="10.94488188976378" stroke-miterlimit="33.357155" stroke-linecap="round" d="m10.737533 7.905512l-0.43832016 58.2231c0 23.288712 16.283466 42.72441 35.545933 42.813652c18.997375 0.08660889 38.784775 -14.622047 38.784775 -40.448822l1.4881897 -60.498688l24.076118 -0.17585278c24.341202 0 54.19423 16.110237 54.19423 48.328083c0 35.020996 -27.577438 53.406822 -57.34384 53.406822" fill-rule="evenodd"/><path fill="#000000" fill-opacity="0.0" d="m164.39368 61.139107l0.17181396 -16.372704c0 -15.322834 13.546783 -36.160103 42.202255 -36.24672c32.737213 0 42.46257 23.900265 42.46257 37.82152l0.4321289 62.77428" fill-rule="evenodd"/><path stroke="#000000" stroke-width="10.94488188976378" stroke-miterlimit="33.357155" stroke-linecap="round" d="m164.39368 61.139107l0.17181396 -16.372704c0 -15.322834 13.546783 -36.160103 42.202255 -36.24672c32.737213 0 42.46257 23.900265 42.46257 37.82152l0.4321289 62.77428" fill-rule="evenodd"/></g></svg>